<svg width="26" height="24" viewBox="0 0 26 24" fill="none" xmlns="http://www.w3.org/2000/svg">
<path d="M6.41669 14.5C6.77085 14.5 7.06773 14.3802 7.30731 14.1406C7.5469 13.901 7.66669 13.6042 7.66669 13.25C7.66669 12.8958 7.5469 12.599 7.30731 12.3594C7.06773 12.1198 6.77085 12 6.41669 12C6.06252 12 5.76565 12.1198 5.52606 12.3594C5.28648 12.599 5.16669 12.8958 5.16669 13.25C5.16669 13.6042 5.28648 13.901 5.52606 14.1406C5.76565 14.3802 6.06252 14.5 6.41669 14.5ZM6.41669 9.5C6.77085 9.5 7.06773 9.38021 7.30731 9.14062C7.5469 8.90104 7.66669 8.60417 7.66669 8.25C7.66669 7.89583 7.5469 7.59896 7.30731 7.35938C7.06773 7.11979 6.77085 7 6.41669 7C6.06252 7 5.76565 7.11979 5.52606 7.35938C5.28648 7.59896 5.16669 7.89583 5.16669 8.25C5.16669 8.60417 5.28648 8.90104 5.52606 9.14062C5.76565 9.38021 6.06252 9.5 6.41669 9.5ZM8.91669 14.5H20.1667V12H8.91669V14.5ZM8.91669 9.5H20.1667V7H8.91669V9.5ZM7.66669 23.25V20.75H2.66669C1.97919 20.75 1.39065 20.5052 0.901062 20.0156C0.411479 19.526 0.166687 18.9375 0.166687 18.25V3.25C0.166687 2.5625 0.411479 1.97396 0.901062 1.48438C1.39065 0.994792 1.97919 0.75 2.66669 0.75H22.6667C23.3542 0.75 23.9427 0.994792 24.4323 1.48438C24.9219 1.97396 25.1667 2.5625 25.1667 3.25V18.25C25.1667 18.9375 24.9219 19.526 24.4323 20.0156C23.9427 20.5052 23.3542 20.75 22.6667 20.75H17.6667V23.25H7.66669Z" fill="#B1040E"/>
</svg>
