<svg width="26" height="28" viewBox="0 0 26 28" fill="none" xmlns="http://www.w3.org/2000/svg">
<path d="M17.5833 24.25C16.5417 24.25 15.6563 23.8854 14.9271 23.1562C14.1979 22.4271 13.8333 21.5417 13.8333 20.5C13.8333 19.4583 14.1979 18.5729 14.9271 17.8438C15.6563 17.1146 16.5417 16.75 17.5833 16.75C18.625 16.75 19.5104 17.1146 20.2396 17.8438C20.9688 18.5729 21.3333 19.4583 21.3333 20.5C21.3333 21.5417 20.9688 22.4271 20.2396 23.1562C19.5104 23.8854 18.625 24.25 17.5833 24.25ZM16.6458 15.5V13H18.5208V15.5H16.6458ZM16.6458 28V25.5H18.5208V28H16.6458ZM21.8021 17.5938L20.4583 16.2812L22.2396 14.5L23.5521 15.8438L21.8021 17.5938ZM12.9271 26.4688L11.6146 25.1562L13.3958 23.375L14.7083 24.6875L12.9271 26.4688ZM22.5833 21.4375V19.5625H25.0833V21.4375H22.5833ZM10.0833 21.4375V19.5625H12.5833V21.4375H10.0833ZM22.2396 26.4688L20.4896 24.6875L21.8021 23.375L23.5833 25.125L22.2396 26.4688ZM13.3646 17.625L11.6146 15.8438L12.9271 14.5312L14.7083 16.2812L13.3646 17.625ZM2.58334 25.5C1.89584 25.5 1.3073 25.2552 0.817719 24.7656C0.328135 24.276 0.0833435 23.6875 0.0833435 23V5.5C0.0833435 4.8125 0.328135 4.22396 0.817719 3.73438C1.3073 3.24479 1.89584 3 2.58334 3H3.83334V0.5H6.33334V3H16.3333V0.5H18.8333V3H20.0833C20.7708 3 21.3594 3.24479 21.849 3.73438C22.3386 4.22396 22.5833 4.8125 22.5833 5.5V10.5H2.58334V23H7.58334V25.5H2.58334Z" fill="#8C1515"/>
</svg>
